<?xml version="1.0" standalone="no"?>
<!DOCTYPE svg PUBLIC "-//W3C//DTD SVG 20010904//EN" "http://www.w3.org/TR/2001/REC-SVG-20010904/DTD/svg10.dtd">
<!-- Created using Krita: https://krita.org -->
<svg xmlns="http://www.w3.org/2000/svg" 
    xmlns:xlink="http://www.w3.org/1999/xlink"
    xmlns:krita="http://krita.org/namespaces/svg/krita"
    xmlns:sodipodi="http://sodipodi.sourceforge.net/DTD/sodipodi-0.dtd"
    width="720pt"
    height="720pt"
    viewBox="0 0 720 720">
<defs>
  <linearGradient id="gradient0" gradientUnits="objectBoundingBox" x1="0.5" y1="0.26368226214693" x2="0.847157698814796" y2="0.482329675884764" spreadMethod="pad">
   <stop stop-color="#8900ff" offset="0" stop-opacity="1"/>
   <stop stop-color="#ff0000" offset="1" stop-opacity="1"/>
  </linearGradient>
 </defs>
<path id="shape0" transform="translate(86.3176356523775, 107.110208595879)" fill="#ffffff" stroke="#000000" stroke-width="3.84" stroke-linecap="square" stroke-linejoin="bevel" d="M213.373 505.692C217.552 505.196 224.769 499.141 232.873 491.442C248.436 476.657 255.626 462.002 262.123 455.442C266.897 450.622 274.72 441.338 288.373 433.692C301.386 426.405 312.801 424.365 319.123 423.192C326.862 421.757 340.319 422.269 358.873 421.692C371.17 421.31 389.17 420.47 417.493 416.832C435.584 414.509 447.835 408.717 454.783 405.432C463.96 401.094 473.028 395.495 490.273 378.732C503.738 365.643 511.89 354.21 515.773 347.232C522.545 335.064 532.849 323.093 539.023 291.042C543.351 268.574 551.991 227.945 544.273 175.542C538.383 135.55 523.972 107.065 515.023 92.2925C500.205 67.8334 482.84 57.2791 473.233 49.4225C444.541 25.96 427.311 18.1609 412.663 12.2225C410.135 11.1977 405.536 10.0836 399.163 9.22246C316.112 -2 255.157 0.122753 219.163 0.222461C175.056 0.344638 143.159 2.16406 124.663 5.47246C114.695 7.25539 108.859 10.2519 88.3927 21.4325C65.543 33.9151 52.2015 49.6419 44.8927 58.1825C36.5558 67.9244 21.9722 78.9878 12.1027 106.962C-0.887101 143.782 1.72639 174.692 0.852735 191.712C0.070643 206.949 -1.35562 232.943 3.10274 268.212C7.26825 301.165 18.5932 324.163 23.8927 337.242C32.8569 359.366 40.8398 363.168 48.0127 370.212C56.4318 378.481 72.5701 390.937 98.3527 402.402C110.07 407.613 116.578 410.104 145.933 416.622C158.511 419.415 168.497 423.031 194.173 421.992C208.413 421.416 205.118 420.673 214.123 424.002C216.359 424.829 219.294 425.7 218.713 429.342C217.515 436.853 200.208 461.869 199.873 479.442C199.673 489.899 201.435 498.417 204.373 501.942C205.273 503.022 207.749 506.36 213.373 505.692Z" sodipodi:nodetypes="cssssssssssssssssssssssssssssssss"/><path id="shape01" transform="translate(261.513562454875, 199.452595932651)" fill="url(#gradient0)" stroke="#d1b38b" stroke-width="3.84" stroke-linecap="square" stroke-linejoin="bevel" d="M35.9279 188.654C39.8577 186.934 27.2165 236.719 32.1779 241.904C38.3606 248.365 57.1551 243.999 60.6779 241.154C67.3536 235.762 57.8468 200.904 73.4279 188.654C79.4843 183.892 92.6961 186.586 94.4279 188.654C99.014 194.129 73.9798 230.905 84.6779 243.404C91.4605 251.328 115.503 246.138 119.928 242.654C136.281 229.777 127.251 195.015 134.178 188.654C140.127 183.191 168.657 193.384 181.428 180.404C189.11 172.596 188.358 154.923 185.928 151.904C178.397 142.548 150.883 153.66 147.678 149.654C143.8 144.807 142.636 115.328 155.178 103.904C169.821 90.565 202.81 105.855 209.178 100.154C218.385 91.9117 217.923 70.7035 215.178 67.1539C211.054 61.8212 174.189 75.7755 164.928 63.4039C160.699 57.7544 186.079 22.9452 176.178 10.9039C167.878 0.810581 136.146 7.10267 131.178 11.6539C125.601 16.7631 138.899 51.1857 125.928 61.9039C123.029 64.2993 104.752 66.2359 99.6779 59.6539C88.976 45.7716 113.784 10.2773 109.178 4.90393C101.247 -4.34847 73.2596 1.5975 68.1779 5.65393C61.1898 11.2321 70.9628 46.8563 54.6779 60.4039C43.6125 69.6094 20.7281 58.6269 16.4279 62.6539C12.3561 66.467 4.53745 89.6047 11.9279 98.6539C15.3427 102.835 42.8684 91.8866 50.9279 101.654C60.4163 113.153 50.7883 142.404 45.6779 147.404C41.1642 151.82 15.5722 140.836 5.17788 151.154C-4.4533 160.715 1.50138 180.06 5.83788 186.464C8.03128 189.703 17.5176 196.714 35.9279 188.654Z" sodipodi:nodetypes="cssssssssssssssssssssssssssss"/><path id="shape02" transform="translate(338.709379395506, 298.99509177744)" fill="#ffffff" stroke="#d1b38b" stroke-width="3.84" stroke-linecap="square" stroke-linejoin="bevel" d="M13.9325 3.13145C17.2226 0.629335 35.1036 -2.61668 40.1825 3.50645C44.5223 8.73863 44.0949 19.1617 42.0483 28.8823C39.7546 39.7765 35.4272 49.7883 33.4975 50.6214C11.2562 60.224 3.55078 52.7814 1.55745 50.3814C1.55745 50.3814 -2.75355 33.3445 2.96909 18.1331C5.05649 12.5845 8.47889 7.27882 13.9325 3.13145Z" sodipodi:nodetypes="cscsscs"/>
</svg>
