<svg xmlns="http://www.w3.org/2000/svg" x="0px" y="0px" width="50" height="50" viewBox="0 0 100 100">
<path d="M88.429,85.543c-2.43-16.313-11.931-29.176-24.221-34.251C70.107,47.341,74,40.618,74,33c0-12.131-9.869-22-22-22 s-22,9.869-22,22c0,7.785,5.881,15.089,12,19c-11.997,5.243-23.039,17.498-25.429,33.541c-0.279,1.871,0.27,3.768,1.504,5.2 C19.311,92.177,21.105,93,23,93h59c1.895,0,3.689-0.823,4.924-2.257C88.159,89.309,88.708,87.412,88.429,85.543z" opacity=".35"></path><path fill="#f2f2f2" d="M86.429,83.543c-2.43-16.313-11.931-29.176-24.221-34.251C68.107,45.341,72,38.618,72,31 c0-12.131-9.869-22-22-22s-22,9.869-22,22c0,7.785,4.069,14.634,10.188,18.545c-11.997,5.243-21.227,17.953-23.616,33.996 c-0.279,1.871,0.27,3.768,1.504,5.2C17.311,90.177,19.105,91,21,91h59c1.895,0,3.689-0.823,4.924-2.257 C86.159,87.309,86.708,85.412,86.429,83.543z"></path><circle cx="50" cy="31" r="15.5" fill="#ffc7a3"></circle><path fill="#40396e" d="M50,48c-9.374,0-17-7.626-17-17s7.626-17,17-17s17,7.626,17,17S59.374,48,50,48z M50,17 c-7.72,0-14,6.28-14,14s6.28,14,14,14s14-6.28,14-14S57.72,17,50,17z"></path><g><path fill="#707cc0" d="M80,84.5c-2.634-17.686-14.836-31.063-29.5-31.063S23.634,66.814,21,84.5H80z"></path><path fill="#40396e" d="M80,86H21c-0.437,0-0.852-0.19-1.136-0.521c-0.285-0.331-0.412-0.769-0.348-1.2 c2.791-18.74,15.821-32.342,30.983-32.342s28.192,13.602,30.983,32.342c0.064,0.432-0.062,0.869-0.348,1.2 C80.852,85.81,80.437,86,80,86z M22.773,83h55.453C75.153,66.637,63.705,54.938,50.5,54.938S25.847,66.637,22.773,83z"></path></g>
</svg>